<svg width="224" height="80" viewBox="0 0 224 80" fill="none" xmlns="http://www.w3.org/2000/svg">
<path d="M6.58039 62.6804V6.59797C6.58039 2.74916 4.38688 0.824755 0 0.824755V0H16.4509C18.6444 0 19.7411 2.1993 19.7411 6.59797V50.2268L38.7419 25.8969C39.6809 24.7423 40.1505 23.7526 40.1505 22.9279C40.1505 21.3883 38.2826 20.6186 34.5469 20.6186V19.7938H48.5404V20.6186C46.7308 20.6186 45.2777 20.9214 44.1809 21.5271C43.0842 22.1327 41.5488 23.7019 39.5746 26.2345L34.1144 33.2074L45.72 56.2538C46.9813 58.89 47.9957 60.4827 48.7634 61.0319C49.5311 61.5811 50.8197 61.8557 52.6293 61.8557V62.6804H37.0094C34.9273 62.6804 32.9823 60.646 31.1744 56.5773L25.1692 44.6991L19.7411 51.5644V56.0928C19.7411 59.9347 21.9345 61.8557 26.3214 61.8557V62.6804H6.58039Z" fill="#393D4B"/>
<path d="M71.4628 26.3916V56.0824C71.4628 59.9312 73.6562 61.8556 78.0431 61.8556V62.6803H51.7217V61.8556C56.1086 61.8556 58.3021 59.9312 58.3021 56.0824V26.3916C58.3021 22.5428 56.1086 20.6185 51.7217 20.6185V19.7937H68.1726C68.6661 19.7937 69.2556 20.2198 69.9411 21.0721C70.6265 21.9243 71.0241 22.3504 71.1337 22.3504C74.0949 20.371 76.9464 19.3813 79.6882 19.3813C93.9457 19.3813 101.074 24.4672 101.074 34.6391V56.0824C101.074 59.9312 103.268 61.8556 107.655 61.8556V62.6803H81.3333V61.8556C85.7202 61.8556 87.9137 59.9312 87.9137 56.0824V35.4638C87.9137 25.292 85.1719 20.2061 79.6882 20.2061C76.8367 20.2061 74.0401 21.2233 71.2983 23.2576C71.408 24.2473 71.4628 25.292 71.4628 26.3916Z" fill="#393D4B"/>
<path d="M104.97 19.7938H121.421C123.615 19.7938 124.711 21.9931 124.711 26.3917V56.0825C124.711 59.9313 126.905 61.8557 131.292 61.8557V62.6804H104.97V61.8557C109.357 61.8557 111.551 59.9313 111.551 56.0825V26.3917C111.551 22.5429 109.357 20.6186 104.97 20.6186V19.7938ZM113.484 11.2577C112.195 9.96566 111.551 8.4124 111.551 6.59797C111.551 4.78353 112.195 3.23021 113.484 1.93812C114.772 0.646041 116.321 0 118.131 0C119.941 0 121.49 0.646041 122.778 1.93812C124.067 3.23021 124.711 4.78353 124.711 6.59797C124.711 8.4124 124.067 9.96566 122.778 11.2577C121.49 12.5498 119.941 13.1959 118.131 13.1959C116.321 13.1959 114.772 12.5498 113.484 11.2577Z" fill="#393D4B"/>
<path d="M152.167 62.6804H152.169C140.105 62.6804 134.073 56.2199 134.073 42.4742V26.3917C134.073 22.5429 131.879 20.6186 127.492 20.6186V19.7938H131.111C136.376 19.7938 139.008 15.945 139.008 8.2474H147.233V19.7938H158.749V20.6186H147.233V53.402C147.233 59.0378 148.878 61.8557 152.169 61.8557H157.416C161.803 61.8557 163.997 59.9313 163.997 56.0825V6.59797C163.997 2.74916 161.803 0.824755 157.416 0.824755V0H173.867C176.061 0 177.157 2.1993 177.157 6.59797V56.0825C177.157 59.9313 179.351 61.8557 183.738 61.8557V62.6804H152.167Z" fill="#393D4B"/>
<path d="M198.521 25.8994L208.054 49.4045L217.529 25.8968C217.938 24.9346 218.143 24.0549 218.143 23.2576C218.143 21.4982 216.513 20.6185 213.252 20.6185V19.7937H224V20.6185C221.642 20.6738 219.778 22.5508 218.407 26.2492L208.615 50.6596L204.014 62.2911L199.326 73.9199C197.407 77.9732 195.049 79.9999 192.252 79.9999C190.443 79.9999 188.894 79.3538 187.605 78.0618C186.316 76.7696 185.672 75.2163 185.672 73.4019C185.672 71.5875 186.303 70.0342 187.564 68.7421C188.825 67.4501 190.361 66.804 192.17 66.804C193.843 66.804 195.351 67.3813 196.694 68.536C197.846 69.5257 198.723 70.0205 199.326 70.0205C199.737 70.0205 200.019 69.8006 200.173 69.3607L202.835 62.6925H201.161C199.961 62.6925 199.208 62.391 198.901 61.7879C198.844 61.6783 198.161 59.9565 196.852 56.6223L184.791 26.2267C183.722 23.56 182.735 21.938 181.83 21.3607C181.062 20.8658 179.746 20.6185 177.882 20.6185V19.7937H193.506C195.37 19.7937 197.041 21.8289 198.521 25.8994Z" fill="#393D4B"/>
</svg>
